<?xml version="1.0" standalone="no"?>
<!DOCTYPE svg PUBLIC "-//W3C//DTD SVG 20010904//EN"
 "http://www.w3.org/TR/2001/REC-SVG-20010904/DTD/svg10.dtd">
<svg version="1.0" xmlns="http://www.w3.org/2000/svg"
 width="512.000000pt" height="512.000000pt" viewBox="0 0 512.000000 512.000000"
 preserveAspectRatio="xMidYMid meet">
<metadata>
Created by potrace 1.14, written by Peter Selinger 2001-2017
</metadata>
<g transform="translate(0.000000,512.000000) scale(0.100000,-0.100000)"
fill="#000000" stroke="none">
<path d="M2190 5085 c-299 -44 -554 -125 -820 -260 -248 -127 -454 -277 -655
-479 -343 -345 -555 -722 -678 -1206 l-32 -125 0 -455 0 -455 32 -125 c97
-384 252 -700 489 -1000 69 -87 348 -370 365 -370 5 0 9 450 9 1195 l0 1195
1660 0 1660 0 0 -225 0 -225 -525 0 -525 0 0 -1050 0 -1050 418 0 419 0 59 41
c164 115 391 330 517 489 271 340 449 735 521 1155 23 129 23 721 0 850 -72
419 -252 818 -521 1155 -91 114 -287 310 -403 402 -201 160 -495 325 -734 413
-166 61 -415 119 -601 139 -40 4 -33 1 40 -19 118 -33 291 -119 391 -193 161
-121 281 -265 370 -447 106 -218 124 -332 124 -792 l0 -343 -300 0 -300 0 0
333 c0 380 -6 424 -70 555 -119 241 -397 373 -665 317 -178 -37 -336 -159
-415 -317 -64 -131 -70 -175 -70 -555 l0 -333 -300 0 -300 0 0 343 c0 460 18
574 124 792 89 182 209 326 370 447 101 75 274 160 391 192 99 27 85 30 -45
11z m2030 -2985 l0 -150 -375 0 -375 0 0 150 0 150 375 0 375 0 0 -150z m0
-600 l0 -150 -375 0 -375 0 0 150 0 150 375 0 375 0 0 -150z m0 -600 l0 -150
-375 0 -375 0 0 150 0 150 375 0 375 0 0 -150z"/>
<path d="M1280 1560 l0 -560 335 0 335 0 0 100 0 100 -207 2 -208 3 -3 458 -2
457 -125 0 -125 0 0 -560z"/>
<path d="M2100 1560 l0 -560 335 0 335 0 0 100 0 100 -210 0 -210 0 0 135 0
135 185 0 185 0 0 100 0 100 -185 0 -185 0 0 120 0 120 195 0 195 0 0 105 0
105 -320 0 -320 0 0 -560z"/>
</g>
</svg>
