<?xml version="1.0" standalone="no"?>
<!DOCTYPE svg PUBLIC "-//W3C//DTD SVG 20010904//EN"
 "http://www.w3.org/TR/2001/REC-SVG-20010904/DTD/svg10.dtd">
<svg version="1.0" xmlns="http://www.w3.org/2000/svg"
 width="700.000000pt" height="700.000000pt" viewBox="0 0 700.000000 700.000000"
 preserveAspectRatio="xMidYMid meet">
<metadata>
Created by potrace 1.14, written by Peter Selinger 2001-2017
</metadata>
<g transform="translate(0.000000,700.000000) scale(0.100000,-0.100000)"
fill="#000000" stroke="none">
<path d="M3370 6993 c-411 -41 -749 -200 -1036 -487 -151 -151 -230 -263 -323
-456 -143 -298 -161 -418 -161 -1098 l0 -442 408 2 407 3 6 485 c7 552 6 548
90 718 41 82 68 120 132 188 143 151 297 232 498 261 99 14 119 14 218 0 188
-27 351 -107 479 -235 74 -74 114 -132 163 -236 71 -152 71 -156 78 -696 l6
-485 408 -3 407 -2 0 437 c0 672 -19 804 -150 1082 -101 211 -205 356 -368
512 -328 315 -832 496 -1262 452z"/>
<path d="M1230 2050 l0 -2050 2270 0 2270 0 0 310 0 310 -720 0 -720 0 2 1433
3 1432 718 3 717 2 0 305 0 305 -2270 0 -2270 0 0 -2050z m864 228 c4 -343 9
-624 11 -626 1 -2 129 -6 284 -9 l281 -6 0 -134 0 -133 -460 0 -460 0 0 765 0
765 169 0 168 0 7 -622z m1656 477 l0 -145 -270 0 -270 0 2 -162 3 -163 253
-3 252 -2 0 -135 0 -135 -255 0 -255 0 0 -185 0 -185 290 0 290 0 0 -135 0
-135 -460 0 -460 0 0 765 0 765 440 0 440 0 0 -145z"/>
<path d="M4747 3073 c-4 -3 -7 -96 -7 -205 l0 -198 515 0 515 0 0 205 0 205
-508 0 c-280 0 -512 -3 -515 -7z"/>
<path d="M4747 2253 c-4 -3 -7 -96 -7 -205 l0 -198 515 0 515 0 0 205 0 205
-508 0 c-280 0 -512 -3 -515 -7z"/>
<path d="M4747 1433 c-4 -3 -7 -96 -7 -205 l0 -198 515 0 515 0 0 205 0 205
-508 0 c-280 0 -512 -3 -515 -7z"/>
</g>
</svg>
